<?xml version="1.0" standalone="no"?>
<!DOCTYPE svg PUBLIC "-//W3C//DTD SVG 20010904//EN"
 "http://www.w3.org/TR/2001/REC-SVG-20010904/DTD/svg10.dtd">
<svg version="1.0" xmlns="http://www.w3.org/2000/svg"
 width="80" height="60" viewBox="0 0 80 60" style="stroke:#57b2ff">
    <line x1="0" y1="0" x2="0" y2="10"/>
    <line x1="0" y1="10" x2="20" y2="20"/>
    <line x1="20" y1="20" x2="20" y2="40"/>
    <line x1="20" y1="40" x2="0" y2="50"/>
    <line x1="0" y1="50" x2="0" y2="60"/>
    <line x1="20" y1="20" x2="40" y2="10"/>
    <line x1="40" y1="0" x2="40" y2="10"/>
    <line x1="20" y1="40" x2="40" y2="50"/>
    <line x1="40" y1="50" x2="60" y2="40"/>
    <line x1="40" y1="50" x2="40" y2="60"/>
    <line x1="40" y1="10" x2="60" y2="20"/>
    <line x1="60" y1="20" x2="60" y2="40"/>
    <line x1="60" y1="20" x2="80" y2="10"/>
    <line x1="60" y1="40" x2="80" y2="50"/>
    <line x1="80" y1="50" x2="80" y2="60"/>
    <line x1="80" y1="10" x2="80" y2="0"/>
</svg>
